<?xml version="1.0" encoding="UTF-8" standalone="no"?>
<!DOCTYPE svg PUBLIC "-//W3C//DTD SVG 1.1//EN"
 "http://www.w3.org/Graphics/SVG/1.1/DTD/svg11.dtd">
<!-- Generated by graphviz version 2.40.1 (20161225.0304)
 -->
<!-- Title: G Pages: 1 -->
<svg width="755pt" height="1998pt"
 viewBox="0.00 0.00 755.36 1998.00" xmlns="http://www.w3.org/2000/svg" xmlns:xlink="http://www.w3.org/1999/xlink">
<g id="graph0" class="graph" transform="scale(1 1) rotate(0) translate(4 1994)">
<title>G</title>
<polygon fill="#ffffff" stroke="transparent" points="-4,4 -4,-1994 751.3564,-1994 751.3564,4 -4,4"/>
<g id="clust1" class="cluster">
<title>cluster_Global</title>
<path fill="none" stroke="#c0c0c0" d="M551.3564,-8C551.3564,-8 727.3564,-8 727.3564,-8 733.3564,-8 739.3564,-14 739.3564,-20 739.3564,-20 739.3564,-1970 739.3564,-1970 739.3564,-1976 733.3564,-1982 727.3564,-1982 727.3564,-1982 551.3564,-1982 551.3564,-1982 545.3564,-1982 539.3564,-1976 539.3564,-1970 539.3564,-1970 539.3564,-20 539.3564,-20 539.3564,-14 545.3564,-8 551.3564,-8"/>
<text text-anchor="middle" x="639.3564" y="-1969.2" font-family="Times,serif" font-size="11.00" fill="#c0c0c0">Global</text>
</g>
<g id="clust2" class="cluster">
<title>cluster_\Validator</title>
<path fill="none" stroke="#c0c0c0" d="M559.3564,-1684C559.3564,-1684 719.3564,-1684 719.3564,-1684 725.3564,-1684 731.3564,-1690 731.3564,-1696 731.3564,-1696 731.3564,-1942 731.3564,-1942 731.3564,-1948 725.3564,-1954 719.3564,-1954 719.3564,-1954 559.3564,-1954 559.3564,-1954 553.3564,-1954 547.3564,-1948 547.3564,-1942 547.3564,-1942 547.3564,-1696 547.3564,-1696 547.3564,-1690 553.3564,-1684 559.3564,-1684"/>
<text text-anchor="middle" x="639.3564" y="-1941.2" font-family="Times,serif" font-size="11.00" fill="#c0c0c0">Validator</text>
</g>
<g id="clust3" class="cluster">
<title>cluster_\Validator\Constraints</title>
<path fill="none" stroke="#c0c0c0" d="M567.3564,-1692C567.3564,-1692 711.3564,-1692 711.3564,-1692 717.3564,-1692 723.3564,-1698 723.3564,-1704 723.3564,-1704 723.3564,-1914 723.3564,-1914 723.3564,-1920 717.3564,-1926 711.3564,-1926 711.3564,-1926 567.3564,-1926 567.3564,-1926 561.3564,-1926 555.3564,-1920 555.3564,-1914 555.3564,-1914 555.3564,-1704 555.3564,-1704 555.3564,-1698 561.3564,-1692 567.3564,-1692"/>
<text text-anchor="middle" x="639.3564" y="-1913.2" font-family="Times,serif" font-size="11.00" fill="#c0c0c0">Constraints</text>
</g>
<g id="clust4" class="cluster">
<title>cluster_\Form</title>
<path fill="none" stroke="#c0c0c0" d="M597.8564,-1118C597.8564,-1118 680.8564,-1118 680.8564,-1118 686.8564,-1118 692.8564,-1124 692.8564,-1130 692.8564,-1130 692.8564,-1664 692.8564,-1664 692.8564,-1670 686.8564,-1676 680.8564,-1676 680.8564,-1676 597.8564,-1676 597.8564,-1676 591.8564,-1676 585.8564,-1670 585.8564,-1664 585.8564,-1664 585.8564,-1130 585.8564,-1130 585.8564,-1124 591.8564,-1118 597.8564,-1118"/>
<text text-anchor="middle" x="639.3564" y="-1663.2" font-family="Times,serif" font-size="11.00" fill="#c0c0c0">Form</text>
</g>
<g id="clust5" class="cluster">
<title>cluster_\Provider</title>
<path fill="none" stroke="#c0c0c0" d="M594.3564,-984C594.3564,-984 684.3564,-984 684.3564,-984 690.3564,-984 696.3564,-990 696.3564,-996 696.3564,-996 696.3564,-1098 696.3564,-1098 696.3564,-1104 690.3564,-1110 684.3564,-1110 684.3564,-1110 594.3564,-1110 594.3564,-1110 588.3564,-1110 582.3564,-1104 582.3564,-1098 582.3564,-1098 582.3564,-996 582.3564,-996 582.3564,-990 588.3564,-984 594.3564,-984"/>
<text text-anchor="middle" x="639.3564" y="-1097.2" font-family="Times,serif" font-size="11.00" fill="#c0c0c0">Provider</text>
</g>
<g id="clust6" class="cluster">
<title>cluster_\Controller</title>
<path fill="none" stroke="#c0c0c0" d="M574.3564,-526C574.3564,-526 704.3564,-526 704.3564,-526 710.3564,-526 716.3564,-532 716.3564,-538 716.3564,-538 716.3564,-964 716.3564,-964 716.3564,-970 710.3564,-976 704.3564,-976 704.3564,-976 574.3564,-976 574.3564,-976 568.3564,-976 562.3564,-970 562.3564,-964 562.3564,-964 562.3564,-538 562.3564,-538 562.3564,-532 568.3564,-526 574.3564,-526"/>
<text text-anchor="middle" x="639.3564" y="-963.2" font-family="Times,serif" font-size="11.00" fill="#c0c0c0">Controller</text>
</g>
<g id="clust7" class="cluster">
<title>cluster_\Utils</title>
<path fill="none" stroke="#c0c0c0" d="M604.8564,-446C604.8564,-446 673.8564,-446 673.8564,-446 679.8564,-446 685.8564,-452 685.8564,-458 685.8564,-458 685.8564,-506 685.8564,-506 685.8564,-512 679.8564,-518 673.8564,-518 673.8564,-518 604.8564,-518 604.8564,-518 598.8564,-518 592.8564,-512 592.8564,-506 592.8564,-506 592.8564,-458 592.8564,-458 592.8564,-452 598.8564,-446 604.8564,-446"/>
<text text-anchor="middle" x="639.3564" y="-505.2" font-family="Times,serif" font-size="11.00" fill="#c0c0c0">Utils</text>
</g>
<g id="clust8" class="cluster">
<title>cluster_\Repository</title>
<path fill="none" stroke="#c0c0c0" d="M574.3564,-96C574.3564,-96 704.3564,-96 704.3564,-96 710.3564,-96 716.3564,-102 716.3564,-108 716.3564,-108 716.3564,-426 716.3564,-426 716.3564,-432 710.3564,-438 704.3564,-438 704.3564,-438 574.3564,-438 574.3564,-438 568.3564,-438 562.3564,-432 562.3564,-426 562.3564,-426 562.3564,-108 562.3564,-108 562.3564,-102 568.3564,-96 574.3564,-96"/>
<text text-anchor="middle" x="639.3564" y="-425.2" font-family="Times,serif" font-size="11.00" fill="#c0c0c0">Repository</text>
</g>
<g id="clust9" class="cluster">
<title>cluster_\Service</title>
<path fill="none" stroke="#c0c0c0" d="M594.3564,-16C594.3564,-16 684.3564,-16 684.3564,-16 690.3564,-16 696.3564,-22 696.3564,-28 696.3564,-28 696.3564,-76 696.3564,-76 696.3564,-82 690.3564,-88 684.3564,-88 684.3564,-88 594.3564,-88 594.3564,-88 588.3564,-88 582.3564,-82 582.3564,-76 582.3564,-76 582.3564,-28 582.3564,-28 582.3564,-22 588.3564,-16 594.3564,-16"/>
<text text-anchor="middle" x="639.3564" y="-75.2" font-family="Times,serif" font-size="11.00" fill="#c0c0c0">Service</text>
</g>
<!-- \\Validator\\Constraints\\UniqueEmailValidator -->
<g id="node1" class="node">
<title>\\Validator\\Constraints\\UniqueEmailValidator</title>
<polygon fill="none" stroke="#000000" points="715.3564,-1898 563.3564,-1898 563.3564,-1862 715.3564,-1862 715.3564,-1898"/>
<text text-anchor="middle" x="639.3564" y="-1877.2" font-family="Courier,monospace" font-size="11.00" fill="#000000">UniqueEmailValidator</text>
</g>
<!-- \\Symfony\\Component\\Validator\\ConstraintValidator -->
<g id="node33" class="node">
<title>\\Symfony\\Component\\Validator\\ConstraintValidator</title>
<ellipse fill="none" stroke="#000000" cx="245.6782" cy="-1853" rx="197.665" ry="18"/>
<text text-anchor="middle" x="245.6782" y="-1849.3" font-family="Times,serif" font-size="14.00" fill="#c0c0c0">\Symfony\Component\Validator\ConstraintValidator</text>
</g>
<!-- \\Validator\\Constraints\\UniqueEmailValidator&#45;&gt;\\Symfony\\Component\\Validator\\ConstraintValidator -->
<g id="edge1" class="edge">
<title>\\Validator\\Constraints\\UniqueEmailValidator&#45;&gt;\\Symfony\\Component\\Validator\\ConstraintValidator</title>
<path fill="none" stroke="#000000" d="M562.9845,-1874.7621C520.4468,-1871.8447 465.7132,-1868.0909 413.7195,-1864.5249"/>
<polygon fill="none" stroke="#000000" points="413.9209,-1861.0306 403.7048,-1863.8381 413.4418,-1868.0142 413.9209,-1861.0306"/>
</g>
<!-- \\Validator\\Constraints\\ChatExistsValidator -->
<g id="node2" class="node">
<title>\\Validator\\Constraints\\ChatExistsValidator</title>
<polygon fill="none" stroke="#000000" points="711.8564,-1844 566.8564,-1844 566.8564,-1808 711.8564,-1808 711.8564,-1844"/>
<text text-anchor="middle" x="639.3564" y="-1823.2" font-family="Courier,monospace" font-size="11.00" fill="#000000">ChatExistsValidator</text>
</g>
<!-- \\Validator\\Constraints\\ChatExistsValidator&#45;&gt;\\Symfony\\Component\\Validator\\ConstraintValidator -->
<g id="edge7" class="edge">
<title>\\Validator\\Constraints\\ChatExistsValidator&#45;&gt;\\Symfony\\Component\\Validator\\ConstraintValidator</title>
<path fill="none" stroke="#000000" d="M566.691,-1830.9837C523.695,-1833.9325 467.339,-1837.7976 413.8657,-1841.465"/>
<polygon fill="none" stroke="#000000" points="413.3041,-1837.9952 403.567,-1842.1714 413.7831,-1844.9788 413.3041,-1837.9952"/>
</g>
<!-- \\Validator\\Constraints\\UniqueEmail -->
<g id="node3" class="node">
<title>\\Validator\\Constraints\\UniqueEmail</title>
<polygon fill="none" stroke="#000000" points="684.8564,-1790 593.8564,-1790 593.8564,-1754 684.8564,-1754 684.8564,-1790"/>
<text text-anchor="middle" x="639.3564" y="-1769.2" font-family="Courier,monospace" font-size="11.00" fill="#000000">UniqueEmail</text>
</g>
<!-- \\Symfony\\Component\\Validator\\Constraint -->
<g id="node37" class="node">
<title>\\Symfony\\Component\\Validator\\Constraint</title>
<ellipse fill="none" stroke="#000000" cx="245.6782" cy="-1745" rx="164.3708" ry="18"/>
<text text-anchor="middle" x="245.6782" y="-1741.3" font-family="Times,serif" font-size="14.00" fill="#c0c0c0">\Symfony\Component\Validator\Constraint</text>
</g>
<!-- \\Validator\\Constraints\\UniqueEmail&#45;&gt;\\Symfony\\Component\\Validator\\Constraint -->
<g id="edge10" class="edge">
<title>\\Validator\\Constraints\\UniqueEmail&#45;&gt;\\Symfony\\Component\\Validator\\Constraint</title>
<path fill="none" stroke="#000000" d="M593.8119,-1768.8764C545.3911,-1765.5555 466.2131,-1760.1251 395.5922,-1755.2817"/>
<polygon fill="none" stroke="#000000" points="395.4556,-1751.7642 385.2395,-1754.5717 394.9766,-1758.7478 395.4556,-1751.7642"/>
</g>
<!-- \\Validator\\Constraints\\ChatExists -->
<g id="node4" class="node">
<title>\\Validator\\Constraints\\ChatExists</title>
<polygon fill="none" stroke="#000000" points="681.3564,-1736 597.3564,-1736 597.3564,-1700 681.3564,-1700 681.3564,-1736"/>
<text text-anchor="middle" x="639.3564" y="-1715.2" font-family="Courier,monospace" font-size="11.00" fill="#000000">ChatExists</text>
</g>
<!-- \\Validator\\Constraints\\ChatExists&#45;&gt;\\Symfony\\Component\\Validator\\Constraint -->
<g id="edge21" class="edge">
<title>\\Validator\\Constraints\\ChatExists&#45;&gt;\\Symfony\\Component\\Validator\\Constraint</title>
<path fill="none" stroke="#000000" d="M597.2259,-1720.8895C549.1068,-1724.1897 467.6657,-1729.7752 395.2815,-1734.7396"/>
<polygon fill="none" stroke="#000000" points="394.8694,-1731.2596 385.1323,-1735.4357 395.3484,-1738.2432 394.8694,-1731.2596"/>
</g>
<!-- \\Form\\MessageType -->
<g id="node5" class="node">
<title>\\Form\\MessageType</title>
<polygon fill="none" stroke="#000000" points="684.8564,-1648 593.8564,-1648 593.8564,-1612 684.8564,-1612 684.8564,-1648"/>
<text text-anchor="middle" x="639.3564" y="-1627.2" font-family="Courier,monospace" font-size="11.00" fill="#000000">MessageType</text>
</g>
<!-- \\Symfony\\Component\\Form\\AbstractType -->
<g id="node34" class="node">
<title>\\Symfony\\Component\\Form\\AbstractType</title>
<ellipse fill="none" stroke="#000000" cx="245.6782" cy="-1387" rx="161.6714" ry="18"/>
<text text-anchor="middle" x="245.6782" y="-1383.3" font-family="Times,serif" font-size="14.00" fill="#c0c0c0">\Symfony\Component\Form\AbstractType</text>
</g>
<!-- \\Form\\MessageType&#45;&gt;\\Symfony\\Component\\Form\\AbstractType -->
<g id="edge2" class="edge">
<title>\\Form\\MessageType&#45;&gt;\\Symfony\\Component\\Form\\AbstractType</title>
<path fill="none" stroke="#000000" d="M593.78,-1621.4538C576.2468,-1617.2095 556.3673,-1611.1949 539.3564,-1603 430.7903,-1550.6993 321.2637,-1456.7121 272.2605,-1411.9782"/>
<polygon fill="none" stroke="#000000" points="274.3801,-1409.1726 264.6498,-1404.9808 269.6424,-1414.3256 274.3801,-1409.1726"/>
</g>
<!-- \\Form\\AccessType -->
<g id="node6" class="node">
<title>\\Form\\AccessType</title>
<polygon fill="none" stroke="#000000" points="681.3564,-1594 597.3564,-1594 597.3564,-1558 681.3564,-1558 681.3564,-1594"/>
<text text-anchor="middle" x="639.3564" y="-1573.2" font-family="Courier,monospace" font-size="11.00" fill="#000000">AccessType</text>
</g>
<!-- \\Form\\AccessType&#45;&gt;\\Symfony\\Component\\Form\\AbstractType -->
<g id="edge4" class="edge">
<title>\\Form\\AccessType&#45;&gt;\\Symfony\\Component\\Form\\AbstractType</title>
<path fill="none" stroke="#000000" d="M597.267,-1567.0218C579.1228,-1562.5452 557.8644,-1556.4762 539.3564,-1549 441.6732,-1509.5416 335.3745,-1444.9395 281.4304,-1410.4435"/>
<polygon fill="none" stroke="#000000" points="283.223,-1407.4351 272.9185,-1404.9718 279.4378,-1413.3234 283.223,-1407.4351"/>
</g>
<!-- \\Form\\CommentType -->
<g id="node7" class="node">
<title>\\Form\\CommentType</title>
<polygon fill="none" stroke="#000000" points="684.8564,-1540 593.8564,-1540 593.8564,-1504 684.8564,-1504 684.8564,-1540"/>
<text text-anchor="middle" x="639.3564" y="-1519.2" font-family="Courier,monospace" font-size="11.00" fill="#000000">CommentType</text>
</g>
<!-- \\Form\\CommentType&#45;&gt;\\Symfony\\Component\\Form\\AbstractType -->
<g id="edge8" class="edge">
<title>\\Form\\CommentType&#45;&gt;\\Symfony\\Component\\Form\\AbstractType</title>
<path fill="none" stroke="#000000" d="M593.808,-1510.6133C576.6421,-1506.0837 557.0067,-1500.6161 539.3564,-1495 454.2773,-1467.9291 357.3973,-1431.104 298.9346,-1408.2064"/>
<polygon fill="none" stroke="#000000" points="300.124,-1404.9133 289.5366,-1404.5159 297.5653,-1411.429 300.124,-1404.9133"/>
</g>
<!-- \\Form\\LoginType -->
<g id="node8" class="node">
<title>\\Form\\LoginType</title>
<polygon fill="none" stroke="#000000" points="677.8564,-1486 600.8564,-1486 600.8564,-1450 677.8564,-1450 677.8564,-1486"/>
<text text-anchor="middle" x="639.3564" y="-1465.2" font-family="Courier,monospace" font-size="11.00" fill="#000000">LoginType</text>
</g>
<!-- \\Form\\LoginType&#45;&gt;\\Symfony\\Component\\Form\\AbstractType -->
<g id="edge9" class="edge">
<title>\\Form\\LoginType&#45;&gt;\\Symfony\\Component\\Form\\AbstractType</title>
<path fill="none" stroke="#000000" d="M600.5316,-1460.0117C538.7383,-1447.2977 416.4749,-1422.1417 332.9066,-1404.9474"/>
<polygon fill="none" stroke="#000000" points="333.414,-1401.4786 322.9138,-1402.8914 332.0032,-1408.3349 333.414,-1401.4786"/>
</g>
<!-- \\Form\\ChatType -->
<g id="node9" class="node">
<title>\\Form\\ChatType</title>
<polygon fill="none" stroke="#000000" points="674.8564,-1432 603.8564,-1432 603.8564,-1396 674.8564,-1396 674.8564,-1432"/>
<text text-anchor="middle" x="639.3564" y="-1411.2" font-family="Courier,monospace" font-size="11.00" fill="#000000">ChatType</text>
</g>
<!-- \\Form\\ChatType&#45;&gt;\\Symfony\\Component\\Form\\AbstractType -->
<g id="edge13" class="edge">
<title>\\Form\\ChatType&#45;&gt;\\Symfony\\Component\\Form\\AbstractType</title>
<path fill="none" stroke="#000000" d="M603.7258,-1411.5563C556.4483,-1408.3138 470.082,-1402.3905 394.0193,-1397.1738"/>
<polygon fill="none" stroke="#000000" points="394.057,-1393.6683 383.8409,-1396.4757 393.5779,-1400.6519 394.057,-1393.6683"/>
</g>
<!-- \\Form\\SignupType -->
<g id="node10" class="node">
<title>\\Form\\SignupType</title>
<polygon fill="none" stroke="#000000" points="681.3564,-1378 597.3564,-1378 597.3564,-1342 681.3564,-1342 681.3564,-1378"/>
<text text-anchor="middle" x="639.3564" y="-1357.2" font-family="Courier,monospace" font-size="11.00" fill="#000000">SignupType</text>
</g>
<!-- \\Form\\SignupType&#45;&gt;\\Symfony\\Component\\Form\\AbstractType -->
<g id="edge14" class="edge">
<title>\\Form\\SignupType&#45;&gt;\\Symfony\\Component\\Form\\AbstractType</title>
<path fill="none" stroke="#000000" d="M597.2259,-1362.8895C548.8226,-1366.2092 466.7026,-1371.8413 394.0001,-1376.8275"/>
<polygon fill="none" stroke="#000000" points="393.5455,-1373.3504 383.8085,-1377.5265 394.0245,-1380.334 393.5455,-1373.3504"/>
</g>
<!-- \\Form\\PswdType -->
<g id="node11" class="node">
<title>\\Form\\PswdType</title>
<polygon fill="none" stroke="#000000" points="674.8564,-1324 603.8564,-1324 603.8564,-1288 674.8564,-1288 674.8564,-1324"/>
<text text-anchor="middle" x="639.3564" y="-1303.2" font-family="Courier,monospace" font-size="11.00" fill="#000000">PswdType</text>
</g>
<!-- \\Form\\PswdType&#45;&gt;\\Symfony\\Component\\Form\\AbstractType -->
<g id="edge15" class="edge">
<title>\\Form\\PswdType&#45;&gt;\\Symfony\\Component\\Form\\AbstractType</title>
<path fill="none" stroke="#000000" d="M603.7258,-1313.3311C543.0075,-1325.824 417.8153,-1351.5825 332.7793,-1369.0788"/>
<polygon fill="none" stroke="#000000" points="331.9634,-1365.6733 322.8739,-1371.1168 333.3741,-1372.5296 331.9634,-1365.6733"/>
</g>
<!-- \\Form\\EditType -->
<g id="node12" class="node">
<title>\\Form\\EditType</title>
<polygon fill="none" stroke="#000000" points="674.8564,-1270 603.8564,-1270 603.8564,-1234 674.8564,-1234 674.8564,-1270"/>
<text text-anchor="middle" x="639.3564" y="-1249.2" font-family="Courier,monospace" font-size="11.00" fill="#000000">EditType</text>
</g>
<!-- \\Form\\EditType&#45;&gt;\\Symfony\\Component\\Form\\AbstractType -->
<g id="edge16" class="edge">
<title>\\Form\\EditType&#45;&gt;\\Symfony\\Component\\Form\\AbstractType</title>
<path fill="none" stroke="#000000" d="M603.4955,-1260.8601C584.3424,-1265.7985 560.434,-1272.2934 539.3564,-1279 454.2773,-1306.0709 357.3973,-1342.896 298.9346,-1365.7936"/>
<polygon fill="none" stroke="#000000" points="297.5653,-1362.571 289.5366,-1369.4841 300.124,-1369.0867 297.5653,-1362.571"/>
</g>
<!-- \\Form\\PostType -->
<g id="node13" class="node">
<title>\\Form\\PostType</title>
<polygon fill="none" stroke="#000000" points="674.8564,-1216 603.8564,-1216 603.8564,-1180 674.8564,-1180 674.8564,-1216"/>
<text text-anchor="middle" x="639.3564" y="-1195.2" font-family="Courier,monospace" font-size="11.00" fill="#000000">PostType</text>
</g>
<!-- \\Form\\PostType&#45;&gt;\\Symfony\\Component\\Form\\AbstractType -->
<g id="edge19" class="edge">
<title>\\Form\\PostType&#45;&gt;\\Symfony\\Component\\Form\\AbstractType</title>
<path fill="none" stroke="#000000" d="M603.5044,-1205.4712C584.14,-1210.0526 560.032,-1216.6483 539.3564,-1225 441.6732,-1264.4584 335.3745,-1329.0605 281.4304,-1363.5565"/>
<polygon fill="none" stroke="#000000" points="279.4378,-1360.6766 272.9185,-1369.0282 283.223,-1366.5649 279.4378,-1360.6766"/>
</g>
<!-- \\Form\\PhotoType -->
<g id="node14" class="node">
<title>\\Form\\PhotoType</title>
<polygon fill="none" stroke="#000000" points="677.8564,-1162 600.8564,-1162 600.8564,-1126 677.8564,-1126 677.8564,-1162"/>
<text text-anchor="middle" x="639.3564" y="-1141.2" font-family="Courier,monospace" font-size="11.00" fill="#000000">PhotoType</text>
</g>
<!-- \\Form\\PhotoType&#45;&gt;\\Symfony\\Component\\Form\\AbstractType -->
<g id="edge22" class="edge">
<title>\\Form\\PhotoType&#45;&gt;\\Symfony\\Component\\Form\\AbstractType</title>
<path fill="none" stroke="#000000" d="M600.6558,-1150.9419C581.599,-1155.2253 558.6355,-1161.7125 539.3564,-1171 430.7903,-1223.3007 321.2637,-1317.2879 272.2605,-1362.0218"/>
<polygon fill="none" stroke="#000000" points="269.6424,-1359.6744 264.6498,-1369.0192 274.3801,-1364.8274 269.6424,-1359.6744"/>
</g>
<!-- \\Provider\\CustomUser -->
<g id="node15" class="node">
<title>\\Provider\\CustomUser</title>
<polygon fill="none" stroke="#000000" points="681.3564,-1082 597.3564,-1082 597.3564,-1046 681.3564,-1046 681.3564,-1082"/>
<text text-anchor="middle" x="639.3564" y="-1061.2" font-family="Courier,monospace" font-size="11.00" fill="#000000">CustomUser</text>
</g>
<!-- \\Symfony\\Component\\Security\\Core\\User\\AdvancedUserInterface -->
<g id="node35" class="node">
<title>\\Symfony\\Component\\Security\\Core\\User\\AdvancedUserInterface</title>
<ellipse fill="none" stroke="#000000" cx="245.6782" cy="-1064" rx="245.8565" ry="18"/>
<text text-anchor="middle" x="245.6782" y="-1060.3" font-family="Times,serif" font-size="14.00" fill="#c0c0c0">\Symfony\Component\Security\Core\User\AdvancedUserInterface</text>
</g>
<!-- \\Provider\\CustomUser&#45;&gt;\\Symfony\\Component\\Security\\Core\\User\\AdvancedUserInterface -->
<g id="edge3" class="edge">
<title>\\Provider\\CustomUser&#45;&gt;\\Symfony\\Component\\Security\\Core\\User\\AdvancedUserInterface</title>
<path fill="none" stroke="#000000" stroke-dasharray="1,5" d="M597.2259,-1064C572.3865,-1064 538.6678,-1064 501.8991,-1064"/>
<polygon fill="none" stroke="#000000" points="501.4525,-1060.5001 491.4525,-1064 501.4524,-1067.5001 501.4525,-1060.5001"/>
</g>
<!-- \\Provider\\UserProvider -->
<g id="node16" class="node">
<title>\\Provider\\UserProvider</title>
<polygon fill="none" stroke="#000000" points="688.3564,-1028 590.3564,-1028 590.3564,-992 688.3564,-992 688.3564,-1028"/>
<text text-anchor="middle" x="639.3564" y="-1007.2" font-family="Courier,monospace" font-size="11.00" fill="#000000">UserProvider</text>
</g>
<!-- \\Symfony\\Component\\Security\\Core\\User\\UserProviderInterface -->
<g id="node38" class="node">
<title>\\Symfony\\Component\\Security\\Core\\User\\UserProviderInterface</title>
<ellipse fill="none" stroke="#000000" cx="245.6782" cy="-1010" rx="240.4573" ry="18"/>
<text text-anchor="middle" x="245.6782" y="-1006.3" font-family="Times,serif" font-size="14.00" fill="#c0c0c0">\Symfony\Component\Security\Core\User\UserProviderInterface</text>
</g>
<!-- \\Provider\\UserProvider&#45;&gt;\\Symfony\\Component\\Security\\Core\\User\\UserProviderInterface -->
<g id="edge23" class="edge">
<title>\\Provider\\UserProvider&#45;&gt;\\Symfony\\Component\\Security\\Core\\User\\UserProviderInterface</title>
<path fill="none" stroke="#000000" stroke-dasharray="1,5" d="M590.2928,-1010C564.9523,-1010 531.9118,-1010 496.33,-1010"/>
<polygon fill="none" stroke="#000000" points="496.2311,-1006.5001 486.231,-1010 496.231,-1013.5001 496.2311,-1006.5001"/>
</g>
<!-- \\Controller\\PhotosController -->
<g id="node17" class="node">
<title>\\Controller\\PhotosController</title>
<polygon fill="none" stroke="#000000" points="701.8564,-948 576.8564,-948 576.8564,-912 701.8564,-912 701.8564,-948"/>
<text text-anchor="middle" x="639.3564" y="-927.2" font-family="Courier,monospace" font-size="11.00" fill="#000000">PhotosController</text>
</g>
<!-- \\Silex\\Api\\ControllerProviderInterface -->
<g id="node36" class="node">
<title>\\Silex\\Api\\ControllerProviderInterface</title>
<ellipse fill="none" stroke="#000000" cx="245.6782" cy="-741" rx="146.774" ry="18"/>
<text text-anchor="middle" x="245.6782" y="-737.3" font-family="Times,serif" font-size="14.00" fill="#c0c0c0">\Silex\Api\ControllerProviderInterface</text>
</g>
<!-- \\Controller\\PhotosController&#45;&gt;\\Silex\\Api\\ControllerProviderInterface -->
<g id="edge5" class="edge">
<title>\\Controller\\PhotosController&#45;&gt;\\Silex\\Api\\ControllerProviderInterface</title>
<path fill="none" stroke="#000000" stroke-dasharray="1,5" d="M576.7129,-915.5705C564.1586,-911.9884 551.1948,-907.782 539.3564,-903 441.4175,-863.4383 334.8179,-798.6011 281.0079,-764.1733"/>
<polygon fill="none" stroke="#000000" points="282.8264,-761.1815 272.5225,-758.7158 279.0398,-767.0689 282.8264,-761.1815"/>
</g>
<!-- \\Controller\\AuthController -->
<g id="node18" class="node">
<title>\\Controller\\AuthController</title>
<polygon fill="none" stroke="#000000" points="694.8564,-894 583.8564,-894 583.8564,-858 694.8564,-858 694.8564,-894"/>
<text text-anchor="middle" x="639.3564" y="-873.2" font-family="Courier,monospace" font-size="11.00" fill="#000000">AuthController</text>
</g>
<!-- \\Controller\\AuthController&#45;&gt;\\Silex\\Api\\ControllerProviderInterface -->
<g id="edge6" class="edge">
<title>\\Controller\\AuthController&#45;&gt;\\Silex\\Api\\ControllerProviderInterface</title>
<path fill="none" stroke="#000000" stroke-dasharray="1,5" d="M583.8231,-861.9452C569.2785,-858.0081 553.6652,-853.5528 539.3564,-849 454.0321,-821.8511 356.8388,-784.8917 298.4301,-762.0088"/>
<polygon fill="none" stroke="#000000" points="299.6319,-758.7206 289.0446,-758.3221 297.0726,-765.236 299.6319,-758.7206"/>
</g>
<!-- \\Controller\\ChatController -->
<g id="node19" class="node">
<title>\\Controller\\ChatController</title>
<polygon fill="none" stroke="#000000" points="694.8564,-840 583.8564,-840 583.8564,-804 694.8564,-804 694.8564,-840"/>
<text text-anchor="middle" x="639.3564" y="-819.2" font-family="Courier,monospace" font-size="11.00" fill="#000000">ChatController</text>
</g>
<!-- \\Controller\\ChatController&#45;&gt;\\Silex\\Api\\ControllerProviderInterface -->
<g id="edge11" class="edge">
<title>\\Controller\\ChatController&#45;&gt;\\Silex\\Api\\ControllerProviderInterface</title>
<path fill="none" stroke="#000000" stroke-dasharray="1,5" d="M583.7869,-810.5665C518.0663,-797.0443 407.9387,-774.3854 331.2966,-758.6161"/>
<polygon fill="none" stroke="#000000" points="331.6832,-755.1224 321.183,-756.5352 330.2724,-761.9788 331.6832,-755.1224"/>
</g>
<!-- \\Controller\\FriendsController -->
<g id="node20" class="node">
<title>\\Controller\\FriendsController</title>
<polygon fill="none" stroke="#000000" points="704.8564,-786 573.8564,-786 573.8564,-750 704.8564,-750 704.8564,-786"/>
<text text-anchor="middle" x="639.3564" y="-765.2" font-family="Courier,monospace" font-size="11.00" fill="#000000">FriendsController</text>
</g>
<!-- \\Controller\\FriendsController&#45;&gt;\\Silex\\Api\\ControllerProviderInterface -->
<g id="edge12" class="edge">
<title>\\Controller\\FriendsController&#45;&gt;\\Silex\\Api\\ControllerProviderInterface</title>
<path fill="none" stroke="#000000" stroke-dasharray="1,5" d="M573.4635,-763.4808C521.936,-759.9468 448.4985,-754.9102 384.1911,-750.4998"/>
<polygon fill="none" stroke="#000000" points="384.1694,-746.9901 373.9534,-749.7976 383.6904,-753.9737 384.1694,-746.9901"/>
</g>
<!-- \\Controller\\PostsController -->
<g id="node21" class="node">
<title>\\Controller\\PostsController</title>
<polygon fill="none" stroke="#000000" points="698.3564,-732 580.3564,-732 580.3564,-696 698.3564,-696 698.3564,-732"/>
<text text-anchor="middle" x="639.3564" y="-711.2" font-family="Courier,monospace" font-size="11.00" fill="#000000">PostsController</text>
</g>
<!-- \\Controller\\PostsController&#45;&gt;\\Silex\\Api\\ControllerProviderInterface -->
<g id="edge17" class="edge">
<title>\\Controller\\PostsController&#45;&gt;\\Silex\\Api\\ControllerProviderInterface</title>
<path fill="none" stroke="#000000" stroke-dasharray="1,5" d="M579.9926,-718.0714C528.3017,-721.6166 451.3475,-726.8944 384.2973,-731.493"/>
<polygon fill="none" stroke="#000000" points="383.7914,-728.0193 374.0544,-732.1955 384.2705,-735.0029 383.7914,-728.0193"/>
</g>
<!-- \\Controller\\AdminController -->
<g id="node22" class="node">
<title>\\Controller\\AdminController</title>
<polygon fill="none" stroke="#000000" points="698.3564,-678 580.3564,-678 580.3564,-642 698.3564,-642 698.3564,-678"/>
<text text-anchor="middle" x="639.3564" y="-657.2" font-family="Courier,monospace" font-size="11.00" fill="#000000">AdminController</text>
</g>
<!-- \\Controller\\AdminController&#45;&gt;\\Silex\\Api\\ControllerProviderInterface -->
<g id="edge18" class="edge">
<title>\\Controller\\AdminController&#45;&gt;\\Silex\\Api\\ControllerProviderInterface</title>
<path fill="none" stroke="#000000" stroke-dasharray="1,5" d="M579.9926,-672.2142C513.7989,-685.8337 406.1772,-707.977 330.9766,-723.4497"/>
<polygon fill="none" stroke="#000000" points="330.1397,-720.0485 321.0503,-725.4921 331.5505,-726.9049 330.1397,-720.0485"/>
</g>
<!-- \\Controller\\CommentsController -->
<g id="node23" class="node">
<title>\\Controller\\CommentsController</title>
<polygon fill="none" stroke="#000000" points="708.3564,-624 570.3564,-624 570.3564,-588 708.3564,-588 708.3564,-624"/>
<text text-anchor="middle" x="639.3564" y="-603.2" font-family="Courier,monospace" font-size="11.00" fill="#000000">CommentsController</text>
</g>
<!-- \\Controller\\CommentsController&#45;&gt;\\Silex\\Api\\ControllerProviderInterface -->
<g id="edge20" class="edge">
<title>\\Controller\\CommentsController&#45;&gt;\\Silex\\Api\\ControllerProviderInterface</title>
<path fill="none" stroke="#000000" stroke-dasharray="1,5" d="M570.2664,-623.7948C559.8639,-626.7222 549.2954,-629.8376 539.3564,-633 454.0321,-660.1489 356.8388,-697.1083 298.4301,-719.9912"/>
<polygon fill="none" stroke="#000000" points="297.0726,-716.764 289.0446,-723.6779 299.6319,-723.2794 297.0726,-716.764"/>
</g>
<!-- \\Controller\\UserController -->
<g id="node24" class="node">
<title>\\Controller\\UserController</title>
<polygon fill="none" stroke="#000000" points="694.8564,-570 583.8564,-570 583.8564,-534 694.8564,-534 694.8564,-570"/>
<text text-anchor="middle" x="639.3564" y="-549.2" font-family="Courier,monospace" font-size="11.00" fill="#000000">UserController</text>
</g>
<!-- \\Controller\\UserController&#45;&gt;\\Silex\\Api\\ControllerProviderInterface -->
<g id="edge24" class="edge">
<title>\\Controller\\UserController&#45;&gt;\\Silex\\Api\\ControllerProviderInterface</title>
<path fill="none" stroke="#000000" stroke-dasharray="1,5" d="M583.8191,-564.4542C569.1291,-568.4328 553.4458,-573.3087 539.3564,-579 441.4175,-618.5617 334.8179,-683.3989 281.0079,-717.8267"/>
<polygon fill="none" stroke="#000000" points="279.0398,-714.9311 272.5225,-723.2842 282.8264,-720.8185 279.0398,-714.9311"/>
</g>
<!-- \\Utils\\Paginator -->
<g id="node25" class="node">
<title>\\Utils\\Paginator</title>
<polygon fill="none" stroke="#000000" points="677.8564,-490 600.8564,-490 600.8564,-454 677.8564,-454 677.8564,-490"/>
<text text-anchor="middle" x="639.3564" y="-469.2" font-family="Courier,monospace" font-size="11.00" fill="#000000">Paginator</text>
</g>
<!-- \\Repository\\ChatRepository -->
<g id="node26" class="node">
<title>\\Repository\\ChatRepository</title>
<polygon fill="none" stroke="#000000" points="694.8564,-410 583.8564,-410 583.8564,-374 694.8564,-374 694.8564,-410"/>
<text text-anchor="middle" x="639.3564" y="-389.2" font-family="Courier,monospace" font-size="11.00" fill="#000000">ChatRepository</text>
</g>
<!-- \\Repository\\CommentsRepository -->
<g id="node27" class="node">
<title>\\Repository\\CommentsRepository</title>
<polygon fill="none" stroke="#000000" points="708.3564,-356 570.3564,-356 570.3564,-320 708.3564,-320 708.3564,-356"/>
<text text-anchor="middle" x="639.3564" y="-335.2" font-family="Courier,monospace" font-size="11.00" fill="#000000">CommentsRepository</text>
</g>
<!-- \\Repository\\FriendsRepository -->
<g id="node28" class="node">
<title>\\Repository\\FriendsRepository</title>
<polygon fill="none" stroke="#000000" points="704.8564,-302 573.8564,-302 573.8564,-266 704.8564,-266 704.8564,-302"/>
<text text-anchor="middle" x="639.3564" y="-281.2" font-family="Courier,monospace" font-size="11.00" fill="#000000">FriendsRepository</text>
</g>
<!-- \\Repository\\PostsRepository -->
<g id="node29" class="node">
<title>\\Repository\\PostsRepository</title>
<polygon fill="none" stroke="#000000" points="698.3564,-248 580.3564,-248 580.3564,-212 698.3564,-212 698.3564,-248"/>
<text text-anchor="middle" x="639.3564" y="-227.2" font-family="Courier,monospace" font-size="11.00" fill="#000000">PostsRepository</text>
</g>
<!-- \\Repository\\UserRepository -->
<g id="node30" class="node">
<title>\\Repository\\UserRepository</title>
<polygon fill="none" stroke="#000000" points="694.8564,-194 583.8564,-194 583.8564,-158 694.8564,-158 694.8564,-194"/>
<text text-anchor="middle" x="639.3564" y="-173.2" font-family="Courier,monospace" font-size="11.00" fill="#000000">UserRepository</text>
</g>
<!-- \\Repository\\PhotosRepository -->
<g id="node31" class="node">
<title>\\Repository\\PhotosRepository</title>
<polygon fill="none" stroke="#000000" points="701.8564,-140 576.8564,-140 576.8564,-104 701.8564,-104 701.8564,-140"/>
<text text-anchor="middle" x="639.3564" y="-119.2" font-family="Courier,monospace" font-size="11.00" fill="#000000">PhotosRepository</text>
</g>
<!-- \\Service\\FileUploader -->
<g id="node32" class="node">
<title>\\Service\\FileUploader</title>
<polygon fill="none" stroke="#000000" points="688.3564,-60 590.3564,-60 590.3564,-24 688.3564,-24 688.3564,-60"/>
<text text-anchor="middle" x="639.3564" y="-39.2" font-family="Courier,monospace" font-size="11.00" fill="#000000">FileUploader</text>
</g>
</g>
</svg>
